<svg width="1440" height="75" viewBox="0 0 1440 75" fill="none" xmlns="http://www.w3.org/2000/svg">
<path d="M0 51.3173H34.2C68.55 51.3173 136.95 51.3173 205.5 55.3494C274.05 59.5036 342.45 67.5678 411 64.7575C479.55 61.9473 547.95 48.0183 616.8 47.0409C685.5 46.0634 754.5 57.7931 823.2 58.6483C892.05 59.5036 960.45 49.2402 1029 44.5972C1097.55 39.9542 1165.95 40.6873 1234.5 46.6743C1303.05 52.5391 1371.45 63.5357 1405.8 69.034L1440 74.5323V0H1405.8C1371.45 0 1303.05 0 1234.5 0C1165.95 0 1097.55 0 1029 0C960.45 0 892.05 0 823.2 0C754.5 0 685.5 0 616.8 0C547.95 0 479.55 0 411 0C342.45 0 274.05 0 205.5 0C136.95 0 68.55 0 34.2 0H0V51.3173Z" fill="#2B2727"/>
</svg>
